# xmcd CD database file
#
# Track frame offsets:
#	225
#	10105
#	22605
#	37138
#	50570
#	62728
#	72448
#	84673
#	96378
#	105388
#
# Disc length: 1552 seconds
#
# Revision: 2
# Processed by: cddbd v1.5.2PL0 Copyright (c) Steve Scherf et al.
# Submitted via: CDex 1.70beta2
#
DISCID=7d060d0a
DTITLE=Miller, Ned - USA - From A Jack To A King
DYEAR=1900
DGENRE=Country
TTITLE0=From A Jack To A King
TTITLE1=The Man Behind The Gun
TTITLE2=One Among The Many
TTITLE3=Just Before The Dawn
TTITLE4=The Cry Of The Wild Gose
TTITLE5=Mona Lisa
TTITLE6=You Belong To My Heart
TTITLE7=Lights In The Street
TTITLE8=Invisible Tears
TTITLE9=Do What You Do, Do Well
EXTD=Didn't Know how to contact you so I used a C.D. you didn't have.\n      I got the wrong title for time McGraw's (Not A Moment To Soon).\n      Your listing shows it to be called (Rumor Has It).\n\n                                                    
EXTD=               Les
EXTT0=
EXTT1=
EXTT2=
EXTT3=
EXTT4=
EXTT5=
EXTT6=
EXTT7=
EXTT8=
EXTT9=
PLAYORDER=
